<?xml version="1.0" encoding="UTF-8" standalone="no"?>
<!-- Generated by IcoMoon.io -->

<svg
   xmlns:dc="http://purl.org/dc/elements/1.1/"
   xmlns:cc="http://creativecommons.org/ns#"
   xmlns:rdf="http://www.w3.org/1999/02/22-rdf-syntax-ns#"
   xmlns:svg="http://www.w3.org/2000/svg"
   xmlns="http://www.w3.org/2000/svg"
   xmlns:sodipodi="http://sodipodi.sourceforge.net/DTD/sodipodi-0.dtd"
   xmlns:inkscape="http://www.inkscape.org/namespaces/inkscape"
   version="1.1"
   width="64"
   height="64"
   viewBox="0 0 64 64"
   id="svg14"
   sodipodi:docname="youtube.svg"
   inkscape:version="0.92.2 (5c3e80d, 2017-08-06)">
  <metadata
     id="metadata20">
    <rdf:RDF>
      <cc:Work
         rdf:about="">
        <dc:format>image/svg+xml</dc:format>
        <dc:type
           rdf:resource="http://purl.org/dc/dcmitype/StillImage" />
      </cc:Work>
    </rdf:RDF>
  </metadata>
  <defs
     id="defs18" />
  <sodipodi:namedview
     pagecolor="#ffffff"
     bordercolor="#666666"
     borderopacity="1"
     objecttolerance="10"
     gridtolerance="10"
     guidetolerance="10"
     inkscape:pageopacity="0"
     inkscape:pageshadow="2"
     inkscape:window-width="1366"
     inkscape:window-height="705"
     id="namedview16"
     showgrid="false"
     inkscape:zoom="3.6875"
     inkscape:cx="32"
     inkscape:cy="32"
     inkscape:window-x="-8"
     inkscape:window-y="-8"
     inkscape:window-maximized="1"
     inkscape:current-layer="svg14" />
  <path
     d="M18.324 0l-4.324 8.577-4.324-8.577h-5.516l7.794 13.582 0.045-0.027v10.445h4v-10.445l0.045 0.027 7.794-13.582z"
     fill="#000000"
     id="path2"
     style="fill:#d41727;fill-opacity:1" />
  <path
     d="M30 8c1.084 0 2 0.916 2 2v8c0 1.084-0.916 2-2 2s-2-0.916-2-2v-8c0-1.084 0.916-2 2-2zM30 4c-3.3 0-6 2.7-6 6v8c0 3.3 2.7 6 6 6s6-2.7 6-6v-8c0-3.3-2.7-6-6-6v0z"
     fill="#000000"
     id="path4"
     style="fill:#d41727;fill-opacity:1" />
  <path
     d="M48 4v15.748c-1.745 1.456-4 2.333-4-2.852v-12.896h-4v13.708h0.006c0.062 3.307 0.759 9.261 7.994 4.419v1.873h4v-20h-4z"
     fill="#000000"
     id="path6"
     style="fill:#d41727;fill-opacity:1" />
  <path
     d="M54 44c-1.103 0-2 0.897-2 2v2h4v-2c0-1.103-0.897-2-2-2z"
     fill="#000000"
     id="path8"
     style="fill:#d41727;fill-opacity:1" />
  <path
     d="M36 46v10.5c1.354 1.354 4 1.5 4-0.5s0-7.375 0-9.375-2-2.625-4-0.625z"
     fill="#000000"
     id="path10"
     style="fill:#d41727;fill-opacity:1" />
  <path
     d="M63.673 36.346c-0.175-2.304-1.003-4.184-2.486-5.64s-3.38-2.25-5.692-2.38c-4.361-0.217-14.341-0.326-23.107-0.326s-19.456 0.109-23.817 0.326c-2.312 0.13-4.209 0.924-5.692 2.38s-2.312 3.336-2.486 5.64c-0.262 4.695-0.393 6.397-0.393 8.744s0.131 5.868 0.393 10.563c0.174 2.304 1.003 4.184 2.486 5.64s3.38 2.249 5.692 2.38c4.361 0.217 15.051 0.326 23.817 0.326s18.746-0.109 23.107-0.326c2.312-0.13 4.209-0.924 5.692-2.38s2.312-3.336 2.486-5.64c0.218-3.912 0.327-7.433 0.327-10.563s-0.109-4.832-0.327-8.744zM12 60h-4v-20h-4v-4h12v4h-4v20zM28 60h-4v-1.873c-7.604 4.268-7.932 0.137-7.994-3.169h-0.006v-10.958h4v11.021c0 2.417 2.255 2.183 4 0.727v-11.748h4v16zM44 55.943c0 4.181-4.282 5.4-8 2.149v1.908h-4v-24h4v6.5c4-4 8-2.5 8 1.5s0 7.573 0 11.943zM60 48v2h-8v4c0 1.103 0.897 2 2 2s2-0.897 2-2v-2h4v2c0 3.308-2.692 6-6 6s-6-2.692-6-6v-8c0-3.308 2.692-6 6-6s6 2.692 6 6v2z"
     fill="#000000"
     id="path12"
     style="fill:#d41727;fill-opacity:1" />
</svg>
